<svg width="71" height="24" viewBox="0 0 71 24" fill="none" xmlns="http://www.w3.org/2000/svg">
<path d="M0.28125 0.96875C0.677083 1.26042 1.07292 1.47917 1.46875 1.625C1.88542 1.75 2.26042 1.83333 2.59375 1.875C2.96875 1.9375 3.34375 1.94792 3.71875 1.90625C4.07292 1.86458 4.4375 1.73958 4.8125 1.53125C5.1875 1.32292 5.625 1.10417 6.125 0.875C6.625 0.645833 7.20833 0.447917 7.875 0.28125C8.5625 0.09375 9.38542 0 10.3438 0C10.7604 0 11.1979 0.0833333 11.6562 0.25C12.1354 0.416667 12.5938 0.635417 13.0312 0.90625C13.4688 1.15625 13.8646 1.4375 14.2188 1.75C14.5938 2.0625 14.875 2.375 15.0625 2.6875C15.2708 3 15.4167 3.51042 15.5 4.21875C15.5833 4.90625 15.6146 5.65625 15.5938 6.46875C15.5729 7.28125 15.5 8.08333 15.375 8.875C15.2708 9.66667 15.1146 10.3125 14.9062 10.8125C14.6562 11.25 14.1771 11.8125 13.4688 12.5C12.8646 13.0833 11.9583 13.8333 10.75 14.75C9.54167 15.6667 7.91667 16.7604 5.875 18.0312C7.08333 18.0104 8.09375 17.9792 8.90625 17.9375C9.73958 17.875 10.4167 17.8125 10.9375 17.75C11.5417 17.6667 12.0208 17.5833 12.375 17.5C12.6875 17.375 13.0208 17.1979 13.375 16.9688C13.6667 16.7604 13.9792 16.4896 14.3125 16.1562C14.6667 15.8229 15.0104 15.3854 15.3438 14.8438C15.4062 15.9688 15.4688 16.8542 15.5312 17.5C15.5729 17.875 15.6042 18.1979 15.625 18.4688C15.6458 18.7188 15.6667 19.0104 15.6875 19.3438C15.7083 19.6354 15.7188 19.9688 15.7188 20.3438C15.7396 20.7188 15.7708 21.1146 15.8125 21.5312C14.7708 21.2604 13.8229 21.0521 12.9688 20.9062C12.1146 20.7396 11.3854 20.625 10.7812 20.5625C10.0729 20.4792 9.4375 20.4375 8.875 20.4375C8.29167 20.4583 7.64583 20.5104 6.9375 20.5938C6.3125 20.6771 5.5625 20.8021 4.6875 20.9688C3.83333 21.1146 2.86458 21.3333 1.78125 21.625C1.69792 21.3958 1.625 21.1667 1.5625 20.9375C1.5 20.6875 1.44792 20.4479 1.40625 20.2188C1.34375 19.9688 1.29167 19.7188 1.25 19.4688C1.20833 19.2188 1.16667 18.9792 1.125 18.75C1.08333 18.5417 1.05208 18.3229 1.03125 18.0938C1.01042 17.8646 0.989583 17.6458 0.96875 17.4375C2.63542 16.375 3.98958 15.4167 5.03125 14.5625C6.07292 13.6875 6.89583 12.9479 7.5 12.3438C8.1875 11.6354 8.70833 10.9896 9.0625 10.4062C9.41667 9.69792 9.70833 8.91667 9.9375 8.0625C10.1667 7.20833 10.2396 6.41667 10.1562 5.6875C10.0938 4.95833 9.84375 4.36458 9.40625 3.90625C8.96875 3.42708 8.27083 3.21875 7.3125 3.28125C6.6875 3.32292 6.09375 3.54167 5.53125 3.9375C4.98958 4.33333 4.48958 4.8125 4.03125 5.375C3.57292 5.9375 3.16667 6.54167 2.8125 7.1875C2.45833 7.8125 2.15625 8.40625 1.90625 8.96875C1.67708 9.53125 1.48958 10 1.34375 10.375C1.21875 10.75 1.15625 10.9479 1.15625 10.9688C1.13542 11.0104 1.10417 10.8542 1.0625 10.5C1.04167 10.1458 1.01042 9.70833 0.96875 9.1875C0.947917 8.64583 0.916667 8.08333 0.875 7.5C0.833333 6.91667 0.791667 6.42708 0.75 6.03125C0.729167 5.71875 0.697917 5.3125 0.65625 4.8125C0.59375 4 0.46875 2.71875 0.28125 0.96875ZM26.7812 0.125C27.7396 0.104167 28.7083 0.322917 29.6875 0.78125C30.6667 1.23958 31.5521 1.9375 32.3438 2.875C33.1354 3.79167 33.7812 4.94792 34.2812 6.34375C34.7812 7.73958 35.0417 9.375 35.0625 11.25C35.0833 12.5 34.9896 13.6354 34.7812 14.6562C34.5729 15.6771 34.2917 16.5938 33.9375 17.4062C33.5833 18.1979 33.1771 18.9062 32.7188 19.5312C32.2812 20.1354 31.8333 20.6562 31.375 21.0938C30.9167 21.5104 30.4792 21.8438 30.0625 22.0938C29.6458 22.3438 29.2917 22.5104 29 22.5938C28.625 22.7188 28.1771 22.8333 27.6562 22.9375C27.1354 23.0208 26.5938 23.0729 26.0312 23.0938C25.4688 23.1354 24.9062 23.1042 24.3438 23C23.8021 22.9167 23.3229 22.75 22.9062 22.5C22.4896 22.25 22 21.8958 21.4375 21.4375C20.8958 20.9583 20.375 20.3125 19.875 19.5C19.375 18.6667 18.9479 17.625 18.5938 16.375C18.2396 15.125 18.0625 13.5938 18.0625 11.7812C18.0625 9.96875 18.2708 8.34375 18.6875 6.90625C19.125 5.46875 19.7188 4.25 20.4688 3.25C21.2396 2.25 22.1562 1.48958 23.2188 0.96875C24.3021 0.427083 25.4896 0.145833 26.7812 0.125ZM22.375 11.75C22.3542 12.9792 22.4271 14.0521 22.5938 14.9688C22.7604 15.8854 22.9583 16.6562 23.1875 17.2812C23.4167 17.9062 23.6458 18.4062 23.875 18.7812C24.125 19.1354 24.3125 19.3854 24.4375 19.5312C24.5625 19.7188 24.7917 19.8438 25.125 19.9062C25.4583 19.9688 25.8125 20 26.1875 20C26.5625 19.9792 26.9271 19.9271 27.2812 19.8438C27.6354 19.7396 27.9062 19.6042 28.0938 19.4375C28.1979 19.3333 28.3438 19.0729 28.5312 18.6562C28.7396 18.2396 28.9375 17.6979 29.125 17.0312C29.3333 16.3646 29.5208 15.5938 29.6875 14.7188C29.8542 13.8229 29.9688 12.8646 30.0312 11.8438C30.0938 10.6979 30.0938 9.64583 30.0312 8.6875C29.9688 7.70833 29.875 6.85417 29.75 6.125C29.625 5.39583 29.4792 4.79167 29.3125 4.3125C29.1458 3.83333 28.9688 3.51042 28.7812 3.34375C28.5104 3.09375 28.1771 2.91667 27.7812 2.8125C27.4062 2.70833 27.0208 2.66667 26.625 2.6875C26.25 2.70833 25.8854 2.78125 25.5312 2.90625C25.1979 3.03125 24.9375 3.19792 24.75 3.40625C24.375 3.82292 24.0417 4.26042 23.75 4.71875C23.4583 5.17708 23.2188 5.72917 23.0312 6.375C22.8438 7.02083 22.6875 7.78125 22.5625 8.65625C22.4583 9.51042 22.3958 10.5417 22.375 11.75ZM41.1562 0.375C41.8438 0.416667 42.4062 0.447917 42.8438 0.46875C43.3021 0.489583 43.6667 0.5 43.9375 0.5C44.25 0.520833 44.4896 0.520833 44.6562 0.5H45.4688C45.7812 0.5 46.2188 0.510417 46.7812 0.53125C47.3646 0.53125 48.125 0.541667 49.0625 0.5625C48.9583 0.708333 48.875 0.885417 48.8125 1.09375C48.75 1.30208 48.6979 1.51042 48.6562 1.71875C48.5938 1.94792 48.5521 2.19792 48.5312 2.46875C48.5104 2.80208 48.4688 3.32292 48.4062 4.03125C48.3646 4.63542 48.3021 5.47917 48.2188 6.5625C48.1562 7.625 48.0729 9.01042 47.9688 10.7188C48.5729 10.7188 49.0938 10.6667 49.5312 10.5625C49.9688 10.4375 50.3333 10.2917 50.625 10.125C50.9583 9.95833 51.2292 9.76042 51.4375 9.53125C51.5417 9.40625 51.6562 9.27083 51.7812 9.125C51.8854 9 52.0208 8.86458 52.1875 8.71875C52.3542 8.57292 52.5312 8.41667 52.7188 8.25C52.6771 8.8125 52.6458 9.30208 52.625 9.71875C52.6042 10.1146 52.5833 10.4479 52.5625 10.7188C52.5417 11.0312 52.5208 11.2812 52.5 11.4688C52.5 11.6979 52.4792 12 52.4375 12.375C52.3958 12.7083 52.3542 13.1562 52.3125 13.7188C52.2708 14.2604 52.2292 14.9479 52.1875 15.7812C51.9792 15.3646 51.7812 15.0417 51.5938 14.8125C51.4271 14.5625 51.2812 14.375 51.1562 14.25C50.9896 14.1042 50.8438 14 50.7188 13.9375C50.5729 13.8958 50.375 13.8542 50.125 13.8125C49.8958 13.7708 49.6042 13.75 49.25 13.75C48.9167 13.7292 48.4792 13.7083 47.9375 13.6875C47.9375 14.9167 47.9583 15.9062 48 16.6562C48.0625 17.4062 48.125 17.9896 48.1875 18.4062C48.2708 18.9062 48.3646 19.2604 48.4688 19.4688C48.5938 19.6562 48.7708 19.875 49 20.125C49.2083 20.3542 49.4896 20.625 49.8438 20.9375C50.1979 21.25 50.6562 21.6042 51.2188 22C50.7396 22.1042 50.2812 22.1771 49.8438 22.2188C49.4271 22.2396 49.0417 22.2708 48.6875 22.3125C48.2917 22.3542 47.9167 22.375 47.5625 22.375C47.1875 22.375 46.7292 22.3958 46.1875 22.4375C45.7083 22.4792 45.1146 22.5208 44.4062 22.5625C43.6979 22.6042 42.8438 22.6562 41.8438 22.7188C42.1979 22.3646 42.4792 22.0417 42.6875 21.75C42.9167 21.4375 43.0938 21.1667 43.2188 20.9375C43.3646 20.6875 43.4688 20.4688 43.5312 20.2812C43.5729 20.0521 43.6354 19.6667 43.7188 19.125C43.7812 18.6667 43.8542 18.0312 43.9375 17.2188C44.0208 16.4062 44.1146 15.3333 44.2188 14L35.7188 14.0938L35.875 12C36.8958 10.5417 37.7083 9.33333 38.3125 8.375C38.9375 7.39583 39.4167 6.60417 39.75 6C40.125 5.3125 40.3958 4.77083 40.5625 4.375C40.6667 4 40.7604 3.60417 40.8438 3.1875C40.9271 2.83333 41 2.41667 41.0625 1.9375C41.125 1.4375 41.1562 0.916667 41.1562 0.375ZM44.5938 11.0312C44.6354 10.4688 44.6667 9.95833 44.6875 9.5C44.7292 9.02083 44.7604 8.60417 44.7812 8.25C44.8021 7.85417 44.8125 7.47917 44.8125 7.125V5.96875C44.8125 5.59375 44.8125 5.15625 44.8125 4.65625C44.8333 4.13542 44.8542 3.55208 44.875 2.90625L40.2812 11.0938L44.5938 11.0312ZM63.9688 0.15625C64.9688 0.09375 65.8854 0.239583 66.7188 0.59375C67.5729 0.927083 68.2917 1.375 68.875 1.9375C69.4583 2.47917 69.8958 3.08333 70.1875 3.75C70.4792 4.41667 70.5938 5.03125 70.5312 5.59375C70.4062 6.32292 70.1562 7.03125 69.7812 7.71875C69.4479 8.30208 68.9688 8.90625 68.3438 9.53125C67.7396 10.1562 66.8958 10.6771 65.8125 11.0938C66.7708 11.6771 67.5 12.3125 68 13C68.5 13.6667 68.8646 14.2917 69.0938 14.875C69.3438 15.5625 69.4688 16.2396 69.4688 16.9062C69.4062 17.9479 69.1875 18.9062 68.8125 19.7812C68.4583 20.6354 67.9479 21.375 67.2812 22C66.6146 22.625 65.8021 23.1042 64.8438 23.4375C63.8854 23.7708 62.7917 23.9271 61.5625 23.9062C59.0833 23.8438 57.1771 23.3438 55.8438 22.4062C54.5104 21.4688 53.8021 20.1562 53.7188 18.4688C53.7188 17.4271 53.8854 16.4479 54.2188 15.5312C54.3646 15.1562 54.5417 14.7708 54.75 14.375C54.9792 13.9792 55.2604 13.6146 55.5938 13.2812C55.9479 12.9271 56.3646 12.6146 56.8438 12.3438C57.3229 12.0521 57.875 11.8333 58.5 11.6875C57.8958 11.5417 57.3854 11.3646 56.9688 11.1562C56.5729 10.9271 56.2292 10.6771 55.9375 10.4062C55.6667 10.1146 55.4479 9.82292 55.2812 9.53125C55.1354 9.21875 55.0312 8.90625 54.9688 8.59375C54.8021 7.90625 54.8125 7.14583 55 6.3125C55.3125 5.25 55.6875 4.35417 56.125 3.625C56.5833 2.875 57.1562 2.26042 57.8438 1.78125C58.5521 1.30208 59.4062 0.9375 60.4062 0.6875C61.4062 0.4375 62.5938 0.260417 63.9688 0.15625ZM59.0312 6.15625C58.9062 6.53125 58.8646 6.96875 58.9062 7.46875C58.9479 7.96875 59.0729 8.4375 59.2812 8.875C59.4896 9.29167 59.7812 9.64583 60.1562 9.9375C60.5312 10.2292 61 10.3646 61.5625 10.3438C62.25 10.3229 62.8438 10.1875 63.3438 9.9375C63.8646 9.6875 64.3021 9.36458 64.6562 8.96875C65.0104 8.57292 65.3021 8.125 65.5312 7.625C65.7812 7.10417 65.9792 6.55208 66.125 5.96875C66.2708 5.38542 66.3021 4.85417 66.2188 4.375C66.1354 3.875 65.9792 3.44792 65.75 3.09375C65.5417 2.73958 65.2812 2.45833 64.9688 2.25C64.6771 2.02083 64.3854 1.88542 64.0938 1.84375C63.4062 1.73958 62.7708 1.83333 62.1875 2.125C61.625 2.41667 61.125 2.80208 60.6875 3.28125C60.2708 3.73958 59.9167 4.23958 59.625 4.78125C59.3542 5.30208 59.1562 5.76042 59.0312 6.15625ZM58 16.1875C57.7292 16.7708 57.6042 17.3646 57.625 17.9688C57.6458 18.5521 57.7812 19.0938 58.0312 19.5938C58.2812 20.0729 58.625 20.4792 59.0625 20.8125C59.5 21.125 60.0104 21.2917 60.5938 21.3125C61.2396 21.3333 61.8021 21.25 62.2812 21.0625C62.7812 20.8542 63.1979 20.5729 63.5312 20.2188C63.8854 19.8438 64.1771 19.4062 64.4062 18.9062C64.6562 18.3854 64.875 17.8229 65.0625 17.2188C65.2292 16.6146 65.2604 16.0417 65.1562 15.5C65.0521 14.9375 64.8542 14.4479 64.5625 14.0312C64.2917 13.5938 63.9583 13.25 63.5625 13C63.1667 12.7292 62.7708 12.5938 62.375 12.5938C61.4792 12.5938 60.6562 12.9062 59.9062 13.5312C59.1771 14.1354 58.5417 15.0208 58 16.1875Z" fill="url(#paint0_linear_733_202)"/>
<defs>
<linearGradient id="paint0_linear_733_202" x1="-1" y1="11.5" x2="72" y2="11.5" gradientUnits="userSpaceOnUse">
<stop offset="0.405" stop-color="#FFB884"/>
<stop offset="0.826892" stop-color="#CAE365"/>
</linearGradient>
</defs>
</svg>
