<svg width="36" height="36" viewBox="0 0 36 36" fill="none" xmlns="http://www.w3.org/2000/svg">
<path d="M0 10C0 4.47715 4.47715 0 10 0H26C31.5228 0 36 4.47715 36 10V26C36 31.5228 31.5228 36 26 36H10C4.47715 36 0 31.5228 0 26V10Z" fill="white"/>
<path d="M28.3175 9.77692C28.3175 9.3281 28.1392 8.89765 27.8218 8.58028C27.5045 8.26291 27.074 8.08462 26.6252 8.08462L13.0867 8C12.6379 8 12.2075 8.1783 11.8901 8.49567C11.5727 8.81303 11.3944 9.24348 11.3944 9.69231C11.3944 10.1411 11.5727 10.5716 11.8901 10.8889C12.2075 11.2063 12.6379 11.3846 13.0867 11.3846H22.496L8.50058 25.4138C8.34196 25.5712 8.21607 25.7583 8.13015 25.9646C8.04423 26.1708 8 26.392 8 26.6154C8 26.8388 8.04423 27.06 8.13015 27.2662C8.21607 27.4724 8.34196 27.6596 8.50058 27.8169C8.6579 27.9755 8.84507 28.1014 9.0513 28.1874C9.25752 28.2733 9.47872 28.3175 9.70212 28.3175C9.92552 28.3175 10.1467 28.2733 10.3529 28.1874C10.5592 28.1014 10.7463 27.9755 10.9037 27.8169L24.9329 13.7877V23.2308C24.9329 23.6796 25.1112 24.11 25.4286 24.4274C25.7459 24.7448 26.1764 24.9231 26.6252 24.9231C27.074 24.9231 27.5045 24.7448 27.8218 24.4274C28.1392 24.11 28.3175 23.6796 28.3175 23.2308V9.77692Z" fill="#699BF7"/>
</svg>
