<svg width="200" height="179" viewBox="0 0 200 179" fill="none" xmlns="http://www.w3.org/2000/svg">
<path d="M74.3304 50.1116C69.8661 56.9568 64.7693 67.1131 59.0402 80.5804C57.4033 77.2321 56.0268 74.535 54.9107 72.4888C53.7946 70.4427 52.2879 68.0804 50.3906 65.4018C48.4933 62.7232 46.596 60.6213 44.6987 59.096C42.8013 57.5707 40.4576 56.2686 37.6674 55.1897C34.8772 54.1109 31.8452 53.5714 28.5714 53.5714H3.57143C2.52976 53.5714 1.67411 53.2366 1.00446 52.567C0.334821 51.8973 0 51.0417 0 50V28.5714C0 27.5298 0.334821 26.6741 1.00446 26.0045C1.67411 25.3348 2.52976 25 3.57143 25H28.5714C47.1726 25 62.4256 33.3705 74.3304 50.1116ZM200 139.286C200 140.327 199.665 141.183 198.996 141.853L163.281 177.567C162.612 178.237 161.756 178.571 160.714 178.571C159.747 178.571 158.91 178.218 158.203 177.511C157.496 176.804 157.143 175.967 157.143 175V153.571C154.762 153.571 151.6 153.59 147.656 153.627C143.713 153.664 140.699 153.702 138.616 153.739C136.533 153.776 133.817 153.739 130.469 153.627C127.121 153.516 124.479 153.33 122.545 153.069C120.61 152.809 118.229 152.418 115.402 151.897C112.574 151.376 110.231 150.688 108.371 149.833C106.51 148.977 104.353 147.917 101.897 146.652C99.442 145.387 97.247 143.899 95.3125 142.187C93.378 140.476 91.3318 138.486 89.1741 136.217C87.0164 133.947 84.933 131.362 82.9241 128.46C87.314 121.54 92.3735 111.384 98.1027 97.9911C99.7396 101.339 101.116 104.036 102.232 106.083C103.348 108.129 104.855 110.491 106.752 113.17C108.65 115.848 110.547 117.95 112.444 119.475C114.342 121.001 116.685 122.303 119.475 123.382C122.266 124.461 125.298 125 128.571 125H157.143V103.571C157.143 102.53 157.478 101.674 158.147 101.004C158.817 100.335 159.673 100 160.714 100C161.607 100 162.5 100.372 163.393 101.116L198.996 136.719C199.665 137.388 200 138.244 200 139.286ZM200 39.2857C200 40.3274 199.665 41.183 198.996 41.8527L163.281 77.567C162.612 78.2366 161.756 78.5714 160.714 78.5714C159.747 78.5714 158.91 78.218 158.203 77.5112C157.496 76.8043 157.143 75.9673 157.143 75V53.5714H128.571C125 53.5714 121.763 54.1295 118.862 55.2455C115.96 56.3616 113.393 58.0357 111.161 60.2679C108.929 62.5 107.031 64.7879 105.469 67.1317C103.906 69.4754 102.232 72.3586 100.446 75.7812C98.0655 80.3943 95.1637 86.756 91.7411 94.8661C89.5833 99.7768 87.7418 103.906 86.2165 107.254C84.6912 110.603 82.6823 114.509 80.1897 118.973C77.6972 123.437 75.3162 127.158 73.0469 130.134C70.7775 133.11 68.0246 136.198 64.7879 139.397C61.5513 142.597 58.2031 145.145 54.7433 147.042C51.2835 148.94 47.3214 150.502 42.8571 151.73C38.3929 152.958 33.631 153.571 28.5714 153.571H3.57143C2.52976 153.571 1.67411 153.237 1.00446 152.567C0.334821 151.897 0 151.042 0 150V128.571C0 127.53 0.334821 126.674 1.00446 126.004C1.67411 125.335 2.52976 125 3.57143 125H28.5714C32.1429 125 35.3795 124.442 38.2812 123.326C41.183 122.21 43.75 120.536 45.9821 118.304C48.2143 116.071 50.1116 113.783 51.6741 111.44C53.2366 109.096 54.9107 106.213 56.6964 102.79C59.0774 98.1771 61.9792 91.8155 65.4018 83.7054C67.5595 78.7946 69.401 74.6652 70.9263 71.317C72.4516 67.9687 74.4606 64.0625 76.9531 59.5982C79.4457 55.1339 81.8266 51.4137 84.096 48.4375C86.3653 45.4613 89.1183 42.3735 92.3549 39.1741C95.5915 35.9747 98.9397 33.4263 102.4 31.529C105.859 29.6317 109.821 28.0692 114.286 26.8415C118.75 25.6138 123.512 25 128.571 25H157.143V3.57143C157.143 2.52976 157.478 1.67411 158.147 1.00446C158.817 0.334821 159.673 0 160.714 0C161.607 0 162.5 0.372024 163.393 1.11607L198.996 36.7187C199.665 37.3884 200 38.244 200 39.2857Z" fill="#699BF7"/>
</svg>
