<svg width="74" height="95" viewBox="0 0 74 95" fill="none" xmlns="http://www.w3.org/2000/svg">
<path d="M35.2137 25.5363L41.047 25.5363M38.1304 63.453V63.4821M26.4637 75.1196C24.9166 75.1196 23.4329 74.505 22.3389 73.4111C21.245 72.3171 20.6304 70.8334 20.6304 69.2863L20.6304 28.453C20.6304 26.9059 21.245 25.4221 22.3389 24.3282C23.4329 23.2342 24.9166 22.6196 26.4637 22.6196L49.797 22.6196C51.3441 22.6196 52.8279 23.2342 53.9218 24.3282C55.0158 25.4221 55.6304 26.9059 55.6304 28.453L55.6304 69.2863C55.6304 70.8334 55.0158 72.3171 53.9218 73.4111C52.8279 74.505 51.3441 75.1196 49.797 75.1196H26.4637Z" stroke="white" stroke-width="2" stroke-linecap="round" stroke-linejoin="round"/>
<path d="M27.56 4.6056C27.6943 4.06989 27.3689 3.52675 26.8331 3.39248L18.1032 1.20435C17.5675 1.07007 17.0243 1.39551 16.8901 1.93122C16.7558 2.46693 17.0812 3.01006 17.6169 3.14434L25.3769 5.08934L23.4319 12.8493C23.2976 13.385 23.623 13.9281 24.1588 14.0624C24.6945 14.1967 25.2376 13.8713 25.3719 13.3356L27.56 4.6056ZM7.08998 39.8601C7.00311 30.6657 8.18419 24.3617 11.2276 19.2102C14.2767 14.0491 19.2711 9.91354 27.104 5.22028L26.076 3.50467C18.1552 8.25064 12.812 12.5963 9.50569 18.1929C6.19377 23.7989 5.00173 30.5288 5.09006 39.879L7.08998 39.8601Z" fill="white"/>
<path d="M51.1358 92.1859C51.0774 92.735 51.4753 93.2276 52.0245 93.286L60.974 94.2379C61.5232 94.2963 62.0157 93.8984 62.0742 93.3492C62.1326 92.8001 61.7347 92.3075 61.1855 92.2491L53.2304 91.403L54.0765 83.4479C54.1349 82.8987 53.7371 82.4061 53.1879 82.3477C52.6387 82.2893 52.1461 82.6871 52.0877 83.2363L51.1358 92.1859ZM66.5002 54.4256C67.8658 63.5184 67.5736 69.9254 65.2767 75.4504C62.9756 80.9856 58.6054 85.776 51.5019 91.5137L52.7586 93.0695C59.9419 87.2674 64.6282 82.2204 67.1235 76.2181C69.623 70.2058 69.8668 63.3754 68.478 54.1286L66.5002 54.4256Z" fill="white"/>
</svg>
