<svg width="18" height="23" viewBox="0 0 18 23" fill="none" xmlns="http://www.w3.org/2000/svg">
<path d="M15.1364 7.36326H9.81818V14.778C9.81818 14.995 9.73198 15.2031 9.57854 15.3566C9.4251 15.51 9.217 15.5962 9 15.5962C8.78301 15.5962 8.5749 15.51 8.42146 15.3566C8.26802 15.2031 8.18182 14.995 8.18182 14.778V7.36326H2.86364C2.1044 7.36407 1.3765 7.66603 0.839637 8.20289C0.302777 8.73975 0.000812161 9.46766 0 10.2269V20.0451C0.000812161 20.8043 0.302777 21.5322 0.839637 22.0691C1.3765 22.6059 2.1044 22.9079 2.86364 22.9087H15.1364C15.8956 22.9079 16.6235 22.6059 17.1604 22.0691C17.6972 21.5322 17.9992 20.8043 18 20.0451V10.2269C17.9992 9.46766 17.6972 8.73975 17.1604 8.20289C16.6235 7.66603 15.8956 7.36407 15.1364 7.36326ZM9.81818 2.7932L12.5126 5.48706C12.6672 5.63403 12.8732 5.71475 13.0866 5.71201C13.2999 5.70928 13.5038 5.62332 13.6546 5.47244C13.8055 5.32157 13.8915 5.11772 13.8942 4.90437C13.8969 4.69102 13.8162 4.48505 13.6693 4.33036L9.57835 0.23945C9.42493 0.0861274 9.2169 0 9 0C8.7831 0 8.57507 0.0861274 8.42165 0.23945L4.33074 4.33036C4.18378 4.48505 4.10306 4.69102 4.10579 4.90437C4.10852 5.11772 4.19449 5.32157 4.34536 5.47244C4.49624 5.62332 4.70008 5.70928 4.91343 5.71201C5.12678 5.71475 5.33276 5.63403 5.48744 5.48706L8.18182 2.7932V7.36326H9.81818V2.7932Z" fill="white"/>
</svg>
